<svg width="170" height="98" viewBox="0 0 170 98" fill="none" xmlns="http://www.w3.org/2000/svg">
<path d="M0.651752 81.7135C-2.20029 88.9069 4.7927 96.0981 12.2131 93.6026L22.7662 90.0538L22.1079 88.1564C20.804 84.4005 20.2315 80.214 23.5349 77.0411L28.1062 72.6504C26.4024 60.4208 30.4152 48.5012 36.5347 42.6228L40.6598 38.6607L44.7849 42.6228C50.905 48.5012 54.9177 60.4208 53.2139 72.6504L57.7853 77.0411C61.088 80.214 60.5161 84.4005 59.2123 88.1571L58.5541 90.054L69.1068 93.6026C76.5272 96.0981 83.5203 88.9069 80.6682 81.7135L51.3896 7.86816C47.5738 -1.75553 33.7462 -1.75553 29.9304 7.86816L0.651752 81.7135Z" fill="#FBCE1F"/>
<path d="M36.3772 85.3145V88.0555C36.3772 92.0153 40.658 97.6506 40.658 97.6506C40.658 97.6506 44.9395 92.453 44.9395 88.0555V85.3145H36.3772Z" fill="#FBCE1F"/>
<path d="M40.6338 68.7319C44.4506 68.7319 47.5449 65.6846 47.5449 61.9255C47.5449 58.1664 44.4506 55.1191 40.6338 55.1191C36.8168 55.1191 33.7227 58.1664 33.7227 61.9255C33.7227 65.6846 36.8168 68.7319 40.6338 68.7319Z" fill="#FBCE1F"/>
<path d="M125.012 93.5123H100.031V79.819C100.031 72.1668 101.016 67.9626 106.315 65.4886L113.052 62.3817C115.625 61.1736 116.231 60.483 116.231 58.3543V48.8734C116.231 46.0541 115.702 45.4212 112.598 45.4212C109.418 45.4212 108.813 46.1117 108.813 49.046V54.6843H100.334V49.046C100.334 40.6458 102.454 39.4951 112.749 39.4951C123.045 39.4951 125.012 40.6458 125.012 48.8734V58.6419C125.012 63.4174 123.953 64.9132 119.032 67.0996L111.765 70.3791C109.267 71.5298 108.813 75.2736 108.813 77.7477V87.6437H116.156V76.6545H125.012V93.5123Z" fill="#FAFAFA"/>
<path d="M139.4 85.918V93.5126H131.451V85.918H139.4Z" fill="#FAFAFA"/>
<path d="M169.8 49.046V84.4793C169.8 92.9369 167.604 94.0876 157.309 94.0876C147.014 94.0876 144.895 92.9369 144.895 84.4793V49.046C144.895 40.6458 147.014 39.4951 157.309 39.4951C167.604 39.4951 169.8 40.6458 169.8 49.046ZM161.018 84.4793V49.046C161.018 45.9966 160.489 45.4212 157.385 45.4212C154.129 45.4212 153.6 46.0541 153.6 49.046V84.4793C153.6 87.6438 154.129 88.2191 157.233 88.2191C160.564 88.2191 161.018 87.5286 161.018 84.4793Z" fill="#FAFAFA"/>
</svg>
