<svg width="600" height="160" viewBox="0 0 629 193" fill="none" xmlns="http://www.w3.org/2000/svg">
<path d="M0.535059 191.712L0 42.0172H19.3047H32.7141L33.2492 191.712H0.535059ZM16.2234 32.8849C12.1976 32.8849 8.74701 31.4769 5.87147 28.661C2.99592 25.845 1.558 22.4586 1.558 18.5012C1.558 14.5435 2.99592 11.1571 5.87147 8.34113C8.74701 5.52517 12.1976 4.11719 16.2234 4.11719C20.2851 4.11719 23.7356 5.52517 26.5753 8.34113C29.4508 11.1571 30.8885 14.5435 30.8885 18.5012C30.8885 22.4586 29.4508 25.845 26.5753 28.661C23.7356 31.4769 20.2851 32.8849 16.2234 32.8849Z" fill="#398596"/>
<path d="M0.535059 191.712L0 42.0172H19.3047H32.7141L33.2492 191.712H0.535059ZM16.2234 32.8849C12.1976 32.8849 8.74701 31.4769 5.87147 28.661C2.99592 25.845 1.558 22.4586 1.558 18.5012C1.558 14.5435 2.99592 11.1571 5.87147 8.34113C8.74701 5.52517 12.1976 4.11719 16.2234 4.11719C20.2851 4.11719 23.7356 5.52517 26.5753 8.34113C29.4508 11.1571 30.8885 14.5435 30.8885 18.5012C30.8885 22.4586 29.4508 25.845 26.5753 28.661C23.7356 31.4769 20.2851 32.8849 16.2234 32.8849Z" fill="url(#paint0_linear_861_5372)"/>
<path fill-rule="evenodd" clip-rule="evenodd" d="M40.8755 31.7356C42.5742 27.9476 43.5248 23.7108 43.5248 19.239C43.5248 12.3627 41.2775 6.04212 37.5176 1.05568V0H108.256C116.667 0 123.945 2.13096 130.092 6.39289C136.201 10.6165 140.93 16.5147 144.272 24.087C147.58 31.6593 149.232 40.4494 149.232 50.4572C149.232 60.541 147.58 71.6348 144.272 79.2072C140.93 86.7795 136.201 92.6776 130.092 96.9013C123.945 101.087 116.667 103.18 108.256 103.18H37.5176V69.1788H105.668C109.082 69.1788 112.138 68.3799 114.834 66.7817C117.493 65.1834 119.578 62.9765 121.088 60.1605C122.598 57.3066 123.352 54.0721 123.352 50.4572C123.352 46.8043 122.598 43.5699 121.088 40.7539C119.578 37.938 117.493 35.731 114.834 34.1328C112.138 32.5346 109.082 31.7356 105.668 31.7356H40.8755Z" fill="#398596"/>
<path fill-rule="evenodd" clip-rule="evenodd" d="M40.8755 31.7356C42.5742 27.9476 43.5248 23.7108 43.5248 19.239C43.5248 12.3627 41.2775 6.04212 37.5176 1.05568V0H108.256C116.667 0 123.945 2.13096 130.092 6.39289C136.201 10.6165 140.93 16.5147 144.272 24.087C147.58 31.6593 149.232 40.4494 149.232 50.4572C149.232 60.541 147.58 71.6348 144.272 79.2072C140.93 86.7795 136.201 92.6776 130.092 96.9013C123.945 101.087 116.667 103.18 108.256 103.18H37.5176V69.1788H105.668C109.082 69.1788 112.138 68.3799 114.834 66.7817C117.493 65.1834 119.578 62.9765 121.088 60.1605C122.598 57.3066 123.352 54.0721 123.352 50.4572C123.352 46.8043 122.598 43.5699 121.088 40.7539C119.578 37.938 117.493 35.731 114.834 34.1328C112.138 32.5346 109.082 31.7356 105.668 31.7356H40.8755Z" fill="url(#paint1_linear_861_5372)"/>
<path fill-rule="evenodd" clip-rule="evenodd" d="M112.756 107.551H85.6826V162.165V162.201V162.325H85.6829C85.6849 162.733 85.6953 163.142 85.7141 163.549L85.6505 163.512C84.96 172.237 88.1658 188.385 104.775 192.184C106.661 192.775 108.545 192.926 110.783 192.965C111.335 192.988 111.898 193 112.473 193H135.759L135.568 192.887H135.822V174.269H128.332C120.641 174.269 113.182 170.093 112.785 162.326L112.756 162.3V161.208V161.192V161.175V107.551Z" fill="#398596"/>
<path fill-rule="evenodd" clip-rule="evenodd" d="M112.756 107.551H85.6826V162.165V162.201V162.325H85.6829C85.6849 162.733 85.6953 163.142 85.7141 163.549L85.6505 163.512C84.96 172.237 88.1658 188.385 104.775 192.184C106.661 192.775 108.545 192.926 110.783 192.965C111.335 192.988 111.898 193 112.473 193H135.759L135.568 192.887H135.822V174.269H128.332C120.641 174.269 113.182 170.093 112.785 162.326L112.756 162.3V161.208V161.192V161.175V107.551Z" fill="url(#paint2_linear_861_5372)"/>
<path d="M202.747 32.5944C206.633 32.5944 209.947 33.2104 212.693 34.442C215.439 35.6735 217.534 37.4963 218.975 39.91C220.442 42.324 221.174 45.2922 221.174 48.8143C221.174 51.524 220.708 53.901 219.777 55.9452C218.848 57.9898 217.522 59.7139 215.801 61.1179C214.102 62.4971 212.088 63.5687 209.761 64.3325L207.038 65.8103H190.949L190.879 58.162H202.816C204.888 58.162 206.61 57.7803 207.982 57.0168C209.376 56.2531 210.412 55.2063 211.087 53.8762C211.787 52.546 212.134 51.0314 212.134 49.3318C212.134 46.5731 211.379 44.3809 209.865 42.7551C208.378 41.1048 206.005 40.2795 202.747 40.2795H193.707V86.3899H184.704V32.5944H202.747ZM201.699 62.2634L211.159 62.2263L223.197 85.9095V86.3899H213.567L201.699 62.2634ZM265.843 86.3899H239.006V78.7419H265.843V86.3899ZM241.518 86.3899H232.515V32.5944H241.518V86.3899ZM262.318 62.4481H239.006V54.9107H262.318V62.4481ZM265.669 40.2795H239.006V32.5944H265.669V40.2795ZM302.417 72.4976C302.417 71.0446 302.125 69.8127 301.543 68.803C300.985 67.7685 299.928 66.82 298.369 65.9579C296.809 65.0714 294.563 64.1477 291.632 63.187C289.236 62.4233 287.014 61.549 284.968 60.5637C282.942 59.5785 281.174 58.4454 279.661 57.1645C278.15 55.8592 276.963 54.3565 276.101 52.6569C275.265 50.9327 274.845 48.9498 274.845 46.7085C274.845 43.7774 275.612 41.2034 277.149 38.9864C278.685 36.7448 280.812 34.9962 283.535 33.7398C286.258 32.4838 289.41 31.8555 292.995 31.8555C296.809 31.8555 300.091 32.5944 302.837 34.0725C305.58 35.5255 307.687 37.4963 309.154 39.9841C310.641 42.4717 311.385 45.2429 311.385 48.2972H302.382C302.382 46.5976 302.032 45.0827 301.335 43.7525C300.661 42.3979 299.625 41.3511 298.23 40.6122C296.832 39.8484 295.052 39.4667 292.888 39.4667C290.865 39.4667 289.178 39.7869 287.83 40.4274C286.478 41.0677 285.48 41.9298 284.826 43.0136C284.175 44.0975 283.851 45.329 283.851 46.7085C283.851 48.0139 284.244 49.1715 285.037 50.1816C285.827 51.1913 287.025 52.1149 288.631 52.9525C290.237 53.7652 292.237 54.5535 294.633 55.3172C298.403 56.4749 301.532 57.8296 304.023 59.3812C306.512 60.9332 308.361 62.7682 309.571 64.8866C310.803 67.0047 311.423 69.5174 311.423 72.4238C311.423 75.4535 310.676 78.0768 309.189 80.2936C307.698 82.4858 305.592 84.1732 302.871 85.3554C300.148 86.5376 296.948 87.1288 293.273 87.1288C290.83 87.1288 288.423 86.7839 286.05 86.0943C283.674 85.3799 281.524 84.3208 279.591 82.9168C277.684 81.4883 276.147 79.7023 274.984 77.5594C273.844 75.4165 273.274 72.8918 273.274 69.9852H282.279C282.279 71.7093 282.557 73.1749 283.116 74.3819C283.674 75.589 284.455 76.5864 285.457 77.3747C286.455 78.1384 287.618 78.6926 288.947 79.0375C290.295 79.3822 291.736 79.5546 293.273 79.5546C295.298 79.5546 296.986 79.259 298.334 78.6678C299.683 78.052 300.695 77.2147 301.37 76.1554C302.067 75.0963 302.417 73.8771 302.417 72.4976ZM362.689 60.8961C362.689 66.3397 361.803 71.0198 360.035 74.9361C358.267 78.8525 355.802 81.87 352.636 83.9884C349.496 86.082 345.806 87.1288 341.573 87.1288C337.432 87.1288 333.754 86.082 330.545 83.9884C327.356 81.87 324.855 78.8525 323.041 74.9361C321.25 71.0198 320.353 66.3397 320.353 60.8961V58.1252C320.353 52.6817 321.25 48.0016 323.041 44.0852C324.832 40.1441 327.321 37.1268 330.51 35.0329C333.696 32.9148 337.362 31.8555 341.503 31.8555C345.737 31.8555 349.438 32.9148 352.601 35.0329C355.767 37.1268 358.232 40.1441 360 44.0852C361.792 48.0016 362.689 52.6817 362.689 58.1252V60.8961ZM353.649 58.0514C353.649 54.0857 353.171 50.748 352.216 48.0387C351.264 45.3045 349.878 43.2477 348.064 41.8682C346.249 40.4642 344.061 39.7623 341.503 39.7623C338.989 39.7623 336.827 40.4642 335.013 41.8682C333.218 43.2477 331.835 45.3045 330.857 48.0387C329.905 50.748 329.428 54.0857 329.428 58.0514V60.8961C329.428 64.8618 329.917 68.2118 330.892 70.9459C331.87 73.6801 333.265 75.7492 335.082 77.1532C336.896 78.5572 339.061 79.259 341.573 79.259C344.154 79.259 346.342 78.5572 348.133 77.1532C349.947 75.7492 351.322 73.6801 352.251 70.9459C353.183 68.2118 353.649 64.8618 353.649 60.8961V58.0514ZM411.579 32.5944V68.4335C411.579 72.5469 410.731 75.9955 409.033 78.7787C407.357 81.5373 405.077 83.619 402.192 85.023C399.307 86.427 396.086 87.1288 392.524 87.1288C388.872 87.1288 385.602 86.427 382.717 85.023C379.855 83.619 377.597 81.5373 375.948 78.7787C374.319 75.9955 373.503 72.5469 373.503 68.4335V32.5944H382.473V68.4335C382.473 70.9704 382.882 73.0518 383.695 74.6776C384.508 76.3034 385.671 77.5101 387.185 78.2983C388.698 79.0865 390.478 79.4808 392.524 79.4808C394.619 79.4808 396.41 79.0865 397.9 78.2983C399.388 77.5101 400.539 76.3034 401.355 74.6776C402.169 73.0518 402.577 70.9704 402.577 68.4335V32.5944H411.579ZM441.871 32.5944C445.757 32.5944 449.071 33.2104 451.817 34.442C454.563 35.6735 456.658 37.4963 458.099 39.91C459.567 42.324 460.299 45.2922 460.299 48.8143C460.299 51.524 459.833 53.901 458.904 55.9452C457.972 57.9898 456.647 59.7139 454.925 61.1179C453.226 62.4971 451.212 63.5687 448.886 64.3325L446.163 65.8103H430.076L430.004 58.162H441.941C444.013 58.162 445.734 57.7803 447.106 57.0168C448.501 56.2531 449.537 55.2063 450.211 53.8762C450.911 52.546 451.259 51.0314 451.259 49.3318C451.259 46.5731 450.503 44.3809 448.99 42.7551C447.502 41.1048 445.13 40.2795 441.871 40.2795H432.831V86.3899H423.828V32.5944H441.871ZM440.824 62.2634L450.283 62.2263L462.321 85.9095V86.3899H452.691L440.824 62.2634ZM510.552 68.803C510.274 72.3254 509.331 75.4781 507.725 78.2615C506.145 81.0202 503.922 83.1879 501.06 84.7641C498.199 86.3406 494.697 87.1288 490.553 87.1288C486.366 87.1288 482.725 86.0943 479.632 84.0252C476.559 81.9316 474.186 78.9759 472.51 75.1579C470.858 71.3399 470.033 66.8326 470.033 61.6351V57.3863C470.033 52.1643 470.881 47.6567 472.58 43.8634C474.279 40.0457 476.686 37.0898 479.806 34.9962C482.945 32.9023 486.647 31.8555 490.903 31.8555C494.975 31.8555 498.407 32.656 501.199 34.2572C504.015 35.8337 506.191 38.0256 507.725 40.8336C509.285 43.6171 510.228 46.8194 510.552 50.4401H501.584C501.234 47.0164 500.268 44.356 498.688 42.4594C497.128 40.5628 494.532 39.6144 490.903 39.6144C488.276 39.6144 486.088 40.3043 484.343 41.6835C482.621 43.0384 481.316 45.0334 480.434 47.6689C479.548 50.2799 479.108 53.4944 479.108 57.3122V61.6351C479.108 65.2806 479.502 68.4336 480.295 71.0936C481.085 73.7294 482.317 75.7737 483.993 77.227C485.668 78.6555 487.856 79.3699 490.553 79.3699C493.022 79.3699 495.01 78.9634 496.523 78.1506C498.06 77.3379 499.223 76.1554 500.013 74.6037C500.803 73.0273 501.315 71.0936 501.549 68.803H510.552ZM530.756 86.3899H521.789V32.5944H530.756V86.3899ZM585.061 60.8961C585.061 66.3397 584.176 71.0198 582.407 74.9361C580.639 78.8525 578.174 81.87 575.008 83.9884C571.868 86.082 568.179 87.1288 563.945 87.1288C559.804 87.1288 556.126 86.082 552.917 83.9884C549.728 81.87 547.228 78.8525 545.413 74.9361C543.622 71.0198 542.725 66.3397 542.725 60.8961V58.1252C542.725 52.6817 543.622 48.0016 545.413 44.0852C547.205 40.1441 549.693 37.1268 552.882 35.0329C556.068 32.9148 559.735 31.8555 563.876 31.8555C568.109 31.8555 571.81 32.9148 574.973 35.0329C578.139 37.1268 580.605 40.1441 582.373 44.0852C584.164 48.0016 585.061 52.6817 585.061 58.1252V60.8961ZM576.021 58.0514C576.021 54.0857 575.543 50.748 574.588 48.0387C573.636 45.3045 572.25 43.2477 570.436 41.8682C568.621 40.4642 566.434 39.7623 563.876 39.7623C561.361 39.7623 559.199 40.4642 557.385 41.8682C555.591 43.2477 554.208 45.3045 553.229 48.0387C552.277 50.748 551.8 54.0857 551.8 58.0514V60.8961C551.8 64.8618 552.289 68.2118 553.264 70.9459C554.242 73.6801 555.637 75.7492 557.454 77.1532C559.269 78.5572 561.433 79.259 563.945 79.259C566.526 79.259 568.714 78.5572 570.505 77.1532C572.32 75.7492 573.694 73.6801 574.623 70.9459C575.555 68.2118 576.021 64.8618 576.021 60.8961V58.0514Z" fill="#398596"/>
<path d="M202.747 32.5944C206.633 32.5944 209.947 33.2104 212.693 34.442C215.439 35.6735 217.534 37.4963 218.975 39.91C220.442 42.324 221.174 45.2922 221.174 48.8143C221.174 51.524 220.708 53.901 219.777 55.9452C218.848 57.9898 217.522 59.7139 215.801 61.1179C214.102 62.4971 212.088 63.5687 209.761 64.3325L207.038 65.8103H190.949L190.879 58.162H202.816C204.888 58.162 206.61 57.7803 207.982 57.0168C209.376 56.2531 210.412 55.2063 211.087 53.8762C211.787 52.546 212.134 51.0314 212.134 49.3318C212.134 46.5731 211.379 44.3809 209.865 42.7551C208.378 41.1048 206.005 40.2795 202.747 40.2795H193.707V86.3899H184.704V32.5944H202.747ZM201.699 62.2634L211.159 62.2263L223.197 85.9095V86.3899H213.567L201.699 62.2634ZM265.843 86.3899H239.006V78.7419H265.843V86.3899ZM241.518 86.3899H232.515V32.5944H241.518V86.3899ZM262.318 62.4481H239.006V54.9107H262.318V62.4481ZM265.669 40.2795H239.006V32.5944H265.669V40.2795ZM302.417 72.4976C302.417 71.0446 302.125 69.8127 301.543 68.803C300.985 67.7685 299.928 66.82 298.369 65.9579C296.809 65.0714 294.563 64.1477 291.632 63.187C289.236 62.4233 287.014 61.549 284.968 60.5637C282.942 59.5785 281.174 58.4454 279.661 57.1645C278.15 55.8592 276.963 54.3565 276.101 52.6569C275.265 50.9327 274.845 48.9498 274.845 46.7085C274.845 43.7774 275.612 41.2034 277.149 38.9864C278.685 36.7448 280.812 34.9962 283.535 33.7398C286.258 32.4838 289.41 31.8555 292.995 31.8555C296.809 31.8555 300.091 32.5944 302.837 34.0725C305.58 35.5255 307.687 37.4963 309.154 39.9841C310.641 42.4717 311.385 45.2429 311.385 48.2972H302.382C302.382 46.5976 302.032 45.0827 301.335 43.7525C300.661 42.3979 299.625 41.3511 298.23 40.6122C296.832 39.8484 295.052 39.4667 292.888 39.4667C290.865 39.4667 289.178 39.7869 287.83 40.4274C286.478 41.0677 285.48 41.9298 284.826 43.0136C284.175 44.0975 283.851 45.329 283.851 46.7085C283.851 48.0139 284.244 49.1715 285.037 50.1816C285.827 51.1913 287.025 52.1149 288.631 52.9525C290.237 53.7652 292.237 54.5535 294.633 55.3172C298.403 56.4749 301.532 57.8296 304.023 59.3812C306.512 60.9332 308.361 62.7682 309.571 64.8866C310.803 67.0047 311.423 69.5174 311.423 72.4238C311.423 75.4535 310.676 78.0768 309.189 80.2936C307.698 82.4858 305.592 84.1732 302.871 85.3554C300.148 86.5376 296.948 87.1288 293.273 87.1288C290.83 87.1288 288.423 86.7839 286.05 86.0943C283.674 85.3799 281.524 84.3208 279.591 82.9168C277.684 81.4883 276.147 79.7023 274.984 77.5594C273.844 75.4165 273.274 72.8918 273.274 69.9852H282.279C282.279 71.7093 282.557 73.1749 283.116 74.3819C283.674 75.589 284.455 76.5864 285.457 77.3747C286.455 78.1384 287.618 78.6926 288.947 79.0375C290.295 79.3822 291.736 79.5546 293.273 79.5546C295.298 79.5546 296.986 79.259 298.334 78.6678C299.683 78.052 300.695 77.2147 301.37 76.1554C302.067 75.0963 302.417 73.8771 302.417 72.4976ZM362.689 60.8961C362.689 66.3397 361.803 71.0198 360.035 74.9361C358.267 78.8525 355.802 81.87 352.636 83.9884C349.496 86.082 345.806 87.1288 341.573 87.1288C337.432 87.1288 333.754 86.082 330.545 83.9884C327.356 81.87 324.855 78.8525 323.041 74.9361C321.25 71.0198 320.353 66.3397 320.353 60.8961V58.1252C320.353 52.6817 321.25 48.0016 323.041 44.0852C324.832 40.1441 327.321 37.1268 330.51 35.0329C333.696 32.9148 337.362 31.8555 341.503 31.8555C345.737 31.8555 349.438 32.9148 352.601 35.0329C355.767 37.1268 358.232 40.1441 360 44.0852C361.792 48.0016 362.689 52.6817 362.689 58.1252V60.8961ZM353.649 58.0514C353.649 54.0857 353.171 50.748 352.216 48.0387C351.264 45.3045 349.878 43.2477 348.064 41.8682C346.249 40.4642 344.061 39.7623 341.503 39.7623C338.989 39.7623 336.827 40.4642 335.013 41.8682C333.218 43.2477 331.835 45.3045 330.857 48.0387C329.905 50.748 329.428 54.0857 329.428 58.0514V60.8961C329.428 64.8618 329.917 68.2118 330.892 70.9459C331.87 73.6801 333.265 75.7492 335.082 77.1532C336.896 78.5572 339.061 79.259 341.573 79.259C344.154 79.259 346.342 78.5572 348.133 77.1532C349.947 75.7492 351.322 73.6801 352.251 70.9459C353.183 68.2118 353.649 64.8618 353.649 60.8961V58.0514ZM411.579 32.5944V68.4335C411.579 72.5469 410.731 75.9955 409.033 78.7787C407.357 81.5373 405.077 83.619 402.192 85.023C399.307 86.427 396.086 87.1288 392.524 87.1288C388.872 87.1288 385.602 86.427 382.717 85.023C379.855 83.619 377.597 81.5373 375.948 78.7787C374.319 75.9955 373.503 72.5469 373.503 68.4335V32.5944H382.473V68.4335C382.473 70.9704 382.882 73.0518 383.695 74.6776C384.508 76.3034 385.671 77.5101 387.185 78.2983C388.698 79.0865 390.478 79.4808 392.524 79.4808C394.619 79.4808 396.41 79.0865 397.9 78.2983C399.388 77.5101 400.539 76.3034 401.355 74.6776C402.169 73.0518 402.577 70.9704 402.577 68.4335V32.5944H411.579ZM441.871 32.5944C445.757 32.5944 449.071 33.2104 451.817 34.442C454.563 35.6735 456.658 37.4963 458.099 39.91C459.567 42.324 460.299 45.2922 460.299 48.8143C460.299 51.524 459.833 53.901 458.904 55.9452C457.972 57.9898 456.647 59.7139 454.925 61.1179C453.226 62.4971 451.212 63.5687 448.886 64.3325L446.163 65.8103H430.076L430.004 58.162H441.941C444.013 58.162 445.734 57.7803 447.106 57.0168C448.501 56.2531 449.537 55.2063 450.211 53.8762C450.911 52.546 451.259 51.0314 451.259 49.3318C451.259 46.5731 450.503 44.3809 448.99 42.7551C447.502 41.1048 445.13 40.2795 441.871 40.2795H432.831V86.3899H423.828V32.5944H441.871ZM440.824 62.2634L450.283 62.2263L462.321 85.9095V86.3899H452.691L440.824 62.2634ZM510.552 68.803C510.274 72.3254 509.331 75.4781 507.725 78.2615C506.145 81.0202 503.922 83.1879 501.06 84.7641C498.199 86.3406 494.697 87.1288 490.553 87.1288C486.366 87.1288 482.725 86.0943 479.632 84.0252C476.559 81.9316 474.186 78.9759 472.51 75.1579C470.858 71.3399 470.033 66.8326 470.033 61.6351V57.3863C470.033 52.1643 470.881 47.6567 472.58 43.8634C474.279 40.0457 476.686 37.0898 479.806 34.9962C482.945 32.9023 486.647 31.8555 490.903 31.8555C494.975 31.8555 498.407 32.656 501.199 34.2572C504.015 35.8337 506.191 38.0256 507.725 40.8336C509.285 43.6171 510.228 46.8194 510.552 50.4401H501.584C501.234 47.0164 500.268 44.356 498.688 42.4594C497.128 40.5628 494.532 39.6144 490.903 39.6144C488.276 39.6144 486.088 40.3043 484.343 41.6835C482.621 43.0384 481.316 45.0334 480.434 47.6689C479.548 50.2799 479.108 53.4944 479.108 57.3122V61.6351C479.108 65.2806 479.502 68.4336 480.295 71.0936C481.085 73.7294 482.317 75.7737 483.993 77.227C485.668 78.6555 487.856 79.3699 490.553 79.3699C493.022 79.3699 495.01 78.9634 496.523 78.1506C498.06 77.3379 499.223 76.1554 500.013 74.6037C500.803 73.0273 501.315 71.0936 501.549 68.803H510.552ZM530.756 86.3899H521.789V32.5944H530.756V86.3899ZM585.061 60.8961C585.061 66.3397 584.176 71.0198 582.407 74.9361C580.639 78.8525 578.174 81.87 575.008 83.9884C571.868 86.082 568.179 87.1288 563.945 87.1288C559.804 87.1288 556.126 86.082 552.917 83.9884C549.728 81.87 547.228 78.8525 545.413 74.9361C543.622 71.0198 542.725 66.3397 542.725 60.8961V58.1252C542.725 52.6817 543.622 48.0016 545.413 44.0852C547.205 40.1441 549.693 37.1268 552.882 35.0329C556.068 32.9148 559.735 31.8555 563.876 31.8555C568.109 31.8555 571.81 32.9148 574.973 35.0329C578.139 37.1268 580.605 40.1441 582.373 44.0852C584.164 48.0016 585.061 52.6817 585.061 58.1252V60.8961ZM576.021 58.0514C576.021 54.0857 575.543 50.748 574.588 48.0387C573.636 45.3045 572.25 43.2477 570.436 41.8682C568.621 40.4642 566.434 39.7623 563.876 39.7623C561.361 39.7623 559.199 40.4642 557.385 41.8682C555.591 43.2477 554.208 45.3045 553.229 48.0387C552.277 50.748 551.8 54.0857 551.8 58.0514V60.8961C551.8 64.8618 552.289 68.2118 553.264 70.9459C554.242 73.6801 555.637 75.7492 557.454 77.1532C559.269 78.5572 561.433 79.259 563.945 79.259C566.526 79.259 568.714 78.5572 570.505 77.1532C572.32 75.7492 573.694 73.6801 574.623 70.9459C575.555 68.2118 576.021 64.8618 576.021 60.8961V58.0514Z" fill="url(#paint3_linear_861_5372)"/>
<path d="M223.616 142.633C223.339 146.155 222.395 149.308 220.789 152.092C219.206 154.85 216.987 157.018 214.125 158.594C211.263 160.171 207.761 160.959 203.617 160.959C199.43 160.959 195.79 159.924 192.696 157.855C189.623 155.762 187.25 152.806 185.575 148.988C183.922 145.17 183.098 140.663 183.098 135.465V131.216C183.098 125.994 183.946 121.487 185.644 117.693C187.343 113.876 189.75 110.92 192.87 108.826C196.01 106.732 199.711 105.686 203.968 105.686C208.039 105.686 211.471 106.486 214.264 108.087C217.079 109.664 219.255 111.856 220.789 114.664C222.349 117.447 223.292 120.649 223.616 124.27H214.649C214.298 120.846 213.332 118.186 211.752 116.289C210.192 114.393 207.596 113.444 203.968 113.444C201.337 113.444 199.152 114.134 197.407 115.514C195.686 116.869 194.381 118.863 193.498 121.499C192.612 124.11 192.173 127.325 192.173 131.142V135.465C192.173 139.111 192.566 142.264 193.359 144.924C194.149 147.559 195.382 149.604 197.057 151.057C198.733 152.486 200.92 153.2 203.617 153.2C206.086 153.2 208.074 152.793 209.587 151.981C211.121 151.168 212.284 149.985 213.077 148.434C213.867 146.857 214.379 144.924 214.614 142.633H223.616ZM274.952 134.726C274.952 140.17 274.069 144.85 272.301 148.766C270.533 152.683 268.065 155.7 264.902 157.818C261.759 159.912 258.073 160.959 253.839 160.959C249.695 160.959 246.02 159.912 242.808 157.818C239.622 155.7 237.122 152.683 235.304 148.766C233.513 144.85 232.619 140.17 232.619 134.726V131.955C232.619 126.512 233.513 121.832 235.304 117.915C237.098 113.974 239.587 110.957 242.773 108.863C245.962 106.745 249.626 105.686 253.767 105.686C258.003 105.686 261.701 106.745 264.867 108.863C268.03 110.957 270.498 113.974 272.267 117.915C274.058 121.832 274.952 126.512 274.952 131.955V134.726ZM265.915 131.881C265.915 127.916 265.437 124.578 264.482 121.869C263.527 119.135 262.144 117.078 260.33 115.698C258.515 114.294 256.328 113.592 253.767 113.592C251.255 113.592 249.09 114.294 247.276 115.698C245.485 117.078 244.101 119.135 243.123 121.869C242.168 124.578 241.694 127.916 241.694 131.881V134.726C241.694 138.692 242.18 142.042 243.158 144.776C244.136 147.51 245.531 149.579 247.345 150.983C249.163 152.387 251.324 153.089 253.839 153.089C256.42 153.089 258.608 152.387 260.399 150.983C262.214 149.579 263.588 147.51 264.517 144.776C265.449 142.042 265.915 138.692 265.915 134.726V131.881ZM298.16 106.424L312.609 147.436L327.057 106.424H335.085L315.783 160.22H309.431L290.167 106.424H298.16ZM294.112 106.424L295.437 142.965V160.22H286.466V106.424H294.112ZM338.783 106.424V160.22H329.777V142.965L331.14 106.424H338.783ZM363.559 106.424L378.008 147.436L392.457 106.424H400.484L381.185 160.22H374.834L355.567 106.424H363.559ZM359.511 106.424L360.836 142.965V160.22H351.869V106.424H359.511ZM404.185 106.424V160.22H395.18V142.965L396.54 106.424H404.185ZM454.647 106.424V142.264C454.647 146.377 453.799 149.826 452.1 152.609C450.425 155.367 448.144 157.449 445.259 158.853C442.374 160.257 439.151 160.959 435.591 160.959C431.939 160.959 428.669 160.257 425.784 158.853C422.922 157.449 420.665 155.367 419.013 152.609C417.384 149.826 416.57 146.377 416.57 142.264V106.424H425.541V142.264C425.541 144.8 425.946 146.882 426.762 148.508C427.576 150.133 428.739 151.34 430.252 152.128C431.763 152.917 433.542 153.311 435.591 153.311C437.686 153.311 439.478 152.917 440.965 152.128C442.455 151.34 443.607 150.133 444.42 148.508C445.236 146.882 445.641 144.8 445.641 142.264V106.424H454.647ZM507.345 160.22H498.305L475.899 122.312V160.22H466.893V106.424H475.899L498.375 144.407V106.424H507.345V160.22ZM530.062 160.22H521.091V106.424H530.062V160.22ZM564.784 160.22H555.851V106.424H564.784V160.22ZM580.63 114.11H540.146V106.424H580.63V114.11ZM607.43 131.771L619.051 106.424H629L611.967 140.453V160.22H602.892V140.453L585.862 106.424H595.843L607.43 131.771Z" fill="#398596"/>
<path d="M223.616 142.633C223.339 146.155 222.395 149.308 220.789 152.092C219.206 154.85 216.987 157.018 214.125 158.594C211.263 160.171 207.761 160.959 203.617 160.959C199.43 160.959 195.79 159.924 192.696 157.855C189.623 155.762 187.25 152.806 185.575 148.988C183.922 145.17 183.098 140.663 183.098 135.465V131.216C183.098 125.994 183.946 121.487 185.644 117.693C187.343 113.876 189.75 110.92 192.87 108.826C196.01 106.732 199.711 105.686 203.968 105.686C208.039 105.686 211.471 106.486 214.264 108.087C217.079 109.664 219.255 111.856 220.789 114.664C222.349 117.447 223.292 120.649 223.616 124.27H214.649C214.298 120.846 213.332 118.186 211.752 116.289C210.192 114.393 207.596 113.444 203.968 113.444C201.337 113.444 199.152 114.134 197.407 115.514C195.686 116.869 194.381 118.863 193.498 121.499C192.612 124.11 192.173 127.325 192.173 131.142V135.465C192.173 139.111 192.566 142.264 193.359 144.924C194.149 147.559 195.382 149.604 197.057 151.057C198.733 152.486 200.92 153.2 203.617 153.2C206.086 153.2 208.074 152.793 209.587 151.981C211.121 151.168 212.284 149.985 213.077 148.434C213.867 146.857 214.379 144.924 214.614 142.633H223.616ZM274.952 134.726C274.952 140.17 274.069 144.85 272.301 148.766C270.533 152.683 268.065 155.7 264.902 157.818C261.759 159.912 258.073 160.959 253.839 160.959C249.695 160.959 246.02 159.912 242.808 157.818C239.622 155.7 237.122 152.683 235.304 148.766C233.513 144.85 232.619 140.17 232.619 134.726V131.955C232.619 126.512 233.513 121.832 235.304 117.915C237.098 113.974 239.587 110.957 242.773 108.863C245.962 106.745 249.626 105.686 253.767 105.686C258.003 105.686 261.701 106.745 264.867 108.863C268.03 110.957 270.498 113.974 272.267 117.915C274.058 121.832 274.952 126.512 274.952 131.955V134.726ZM265.915 131.881C265.915 127.916 265.437 124.578 264.482 121.869C263.527 119.135 262.144 117.078 260.33 115.698C258.515 114.294 256.328 113.592 253.767 113.592C251.255 113.592 249.09 114.294 247.276 115.698C245.485 117.078 244.101 119.135 243.123 121.869C242.168 124.578 241.694 127.916 241.694 131.881V134.726C241.694 138.692 242.18 142.042 243.158 144.776C244.136 147.51 245.531 149.579 247.345 150.983C249.163 152.387 251.324 153.089 253.839 153.089C256.42 153.089 258.608 152.387 260.399 150.983C262.214 149.579 263.588 147.51 264.517 144.776C265.449 142.042 265.915 138.692 265.915 134.726V131.881ZM298.16 106.424L312.609 147.436L327.057 106.424H335.085L315.783 160.22H309.431L290.167 106.424H298.16ZM294.112 106.424L295.437 142.965V160.22H286.466V106.424H294.112ZM338.783 106.424V160.22H329.777V142.965L331.14 106.424H338.783ZM363.559 106.424L378.008 147.436L392.457 106.424H400.484L381.185 160.22H374.834L355.567 106.424H363.559ZM359.511 106.424L360.836 142.965V160.22H351.869V106.424H359.511ZM404.185 106.424V160.22H395.18V142.965L396.54 106.424H404.185ZM454.647 106.424V142.264C454.647 146.377 453.799 149.826 452.1 152.609C450.425 155.367 448.144 157.449 445.259 158.853C442.374 160.257 439.151 160.959 435.591 160.959C431.939 160.959 428.669 160.257 425.784 158.853C422.922 157.449 420.665 155.367 419.013 152.609C417.384 149.826 416.57 146.377 416.57 142.264V106.424H425.541V142.264C425.541 144.8 425.946 146.882 426.762 148.508C427.576 150.133 428.739 151.34 430.252 152.128C431.763 152.917 433.542 153.311 435.591 153.311C437.686 153.311 439.478 152.917 440.965 152.128C442.455 151.34 443.607 150.133 444.42 148.508C445.236 146.882 445.641 144.8 445.641 142.264V106.424H454.647ZM507.345 160.22H498.305L475.899 122.312V160.22H466.893V106.424H475.899L498.375 144.407V106.424H507.345V160.22ZM530.062 160.22H521.091V106.424H530.062V160.22ZM564.784 160.22H555.851V106.424H564.784V160.22ZM580.63 114.11H540.146V106.424H580.63V114.11ZM607.43 131.771L619.051 106.424H629L611.967 140.453V160.22H602.892V140.453L585.862 106.424H595.843L607.43 131.771Z" fill="url(#paint4_linear_861_5372)"/>
<defs>
<linearGradient id="paint0_linear_861_5372" x1="7.59066" y1="13.1474" x2="86.4897" y2="35.644" gradientUnits="userSpaceOnUse">
<stop offset="0.0499999" stop-color="#5EF86E" stop-opacity="0.931562"/>
<stop offset="0.39375" stop-color="#4EDA5C" stop-opacity="0.696629"/>
<stop offset="0.652474" stop-color="#5DDC6A" stop-opacity="0.399334"/>
<stop offset="1" stop-opacity="0"/>
</linearGradient>
<linearGradient id="paint1_linear_861_5372" x1="48.3828" y1="4.96684" x2="114.716" y2="135.942" gradientUnits="userSpaceOnUse">
<stop offset="0.0499999" stop-color="#5EF86E" stop-opacity="0.931562"/>
<stop offset="0.39375" stop-color="#4EDA5C" stop-opacity="0.696629"/>
<stop offset="0.652474" stop-color="#5DDC6A" stop-opacity="0.399334"/>
<stop offset="1" stop-opacity="0"/>
</linearGradient>
<linearGradient id="paint2_linear_861_5372" x1="65.0789" y1="44.0063" x2="178.412" y2="161.523" gradientUnits="userSpaceOnUse">
<stop offset="0.390769" stop-color="#5EF86E" stop-opacity="0.931562"/>
<stop offset="1" stop-opacity="0"/>
</linearGradient>
<linearGradient id="paint3_linear_861_5372" x1="355.515" y1="22.7869" x2="365.359" y2="103.286" gradientUnits="userSpaceOnUse">
<stop offset="0.300691" stop-color="#4EDA5C" stop-opacity="0.696629"/>
<stop offset="1" stop-color="white" stop-opacity="0"/>
</linearGradient>
<linearGradient id="paint4_linear_861_5372" x1="373.057" y1="96.617" x2="382.032" y2="177.322" gradientUnits="userSpaceOnUse">
<stop offset="0.300691" stop-color="#4EDA5C" stop-opacity="0.696629"/>
<stop offset="1" stop-color="white" stop-opacity="0"/>
</linearGradient>
</defs>
</svg>
